<?xml version="1.0" encoding="UTF-8"?>
<!DOCTYPE svg PUBLIC "-//W3C//DTD SVG 1.1//EN" "http://www.w3.org/Graphics/SVG/1.1/DTD/svg11.dtd">
<!-- Creator: CorelDRAW -->
<svg xmlns="http://www.w3.org/2000/svg" xml:space="preserve" width="247.269mm" height="40.3179mm" version="1.1" style="shape-rendering:geometricPrecision; text-rendering:geometricPrecision; image-rendering:optimizeQuality; fill-rule:evenodd; clip-rule:evenodd"
viewBox="0 0 24712.71 4029.47"
 xmlns:xlink="http://www.w3.org/1999/xlink"
 xmlns:xodm="http://www.corel.com/coreldraw/odm/2003">
 <defs>
  <style type="text/css">
   <![CDATA[
    .fil1 {fill:#FEFEFE}
    .fil0 {fill:#FEFEFE;fill-rule:nonzero}
   ]]>
  </style>
 </defs>
 <g id="Camada_x0020_1">
  <metadata id="CorelCorpID_0Corel-Layer"/>
  <g id="_2930093290576">
   <g>
    <path class="fil0" d="M19453.69 965.28c313.07,-154.03 624.51,-271.03 931.78,-294.32 2.41,-53.72 4.76,-107.09 7.16,-159.99 -307.7,32.37 -618.5,136.63 -931.15,280.46 -2.63,57.84 -5.18,115.72 -7.79,173.85z"/>
    <path class="fil0" d="M20388.88 791.91c-287.38,16.48 -578.66,121.6 -871.63,264.17 -2.55,57.54 -5.18,115.31 -7.73,173.22 293.26,-149.72 584.96,-263.61 871.99,-273.38 2.47,-55.06 4.96,-109.78 7.37,-164.01z"/>
    <path class="fil0" d="M19365.05 1600.19c364.25,-202.57 727.29,-377.32 1081.36,-353.05 2.55,-56.85 5.1,-113.26 7.59,-169.39 -354.51,-15.93 -716.98,147.86 -1081.03,345.49 -2.69,58.96 -5.3,117.92 -7.92,176.95z"/>
    <path class="fil0" d="M20478.79 1674.26c-2.63,58.33 -5.24,116.93 -7.87,175.82 -774.07,-113.39 -1598.21,893.64 -2372.37,780.88l33.34 -170.15c766.59,89.06 1581.66,-906.04 2346.9,-786.55z"/>
    <path class="fil0" d="M20625.09 2015.39c-2.6,59.25 -5.29,118.51 -7.92,177.75 -437.09,-168.18 -894.14,110.21 -1349.63,353.77 -453.36,249.94 -905.17,465.2 -1342.55,356.05l33.13 -169.11c866.73,259.58 1802.34,-1023.79 2666.96,-718.46z"/>
    <path class="fil0" d="M20541.75 2304.59c-2.69,59.61 -5.3,119.28 -7.99,179.08 -419.53,-106.17 -855.78,160.48 -1289.76,377.56 -432.83,226.37 -863.47,403.41 -1284.07,353.98l33.33 -169.93c411.39,62.36 834.18,-131.3 1258.67,-361.49 434.47,-228.14 870.7,-494.5 1289.81,-379.19z"/>
    <path class="fil0" d="M18985.36 3683.32c-2.47,55.51 -4.96,110.8 -7.43,165.83 -249.02,77.38 -496.75,127.71 -744.71,180.32l30.29 -154.38c239.75,-44.75 480.18,-104.92 721.84,-191.77z"/>
    <path class="fil0" d="M20429.7 2773.05c-401.34,-35.68 -815.49,214.7 -1226.75,400.36 -420.8,203 -838.65,338.48 -1250.31,336.22l33.47 -170.93c402.05,24.49 812.17,-130.88 1224.69,-341.74 411.89,-200.04 826.26,-455.35 1227.1,-407.24l-8.21 183.33z"/>
    <path class="fil0" d="M19870.61 3195.29c-258.35,91.67 -518.4,222.11 -777.12,322.48 -327.67,133.34 -653.2,218.43 -976.97,265.09l31.64 -161.68c315.06,-33.4 633.03,-132.56 952.97,-275.63 259.27,-111.57 519.76,-251.84 778.19,-345.27l-8.71 195.01z"/>
    <path class="fil0" d="M20279.14 254.18c-2.26,50.38 -4.53,101.28 -6.8,152.74 -234.35,38.86 -470.36,113.75 -707.34,211.71l7.51 -168.68c236.56,-87.91 472.12,-153.46 706.63,-195.77z"/>
    <path class="fil0" d="M19887.99 82.53c112.06,-28.96 224.02,-55.51 336.09,-82.53 -0.43,49.17 -0.85,98.87 -1.29,149.05 -113.8,24.64 -227.7,52.67 -341.6,85.24l6.81 -151.76z"/>
    <path class="fil0" d="M20393.84 1536.04c-453.92,-22.74 -923.71,311.44 -1389.54,555.3l7.99 -178.74c465.83,-244.41 935.2,-567.89 1389.2,-548.43 -2.47,56.9 -5.11,114.17 -7.65,171.87z"/>
    <path class="fil0" d="M21116.85 2766.27l-49.34 -112.06 -49.26 112.06 98.6 0zm11.45 26.1l-121.54 0 -25.12 57.2 -33.63 0 103.5 -228.63 32.33 0 103.84 228.63 -34.25 0 -25.14 -57.2z"/>
    <path class="fil0" d="M21236.09 2780.13c7.73,13.38 18.42,23.95 32,31.5 13.66,7.65 28.81,11.48 45.58,11.48 16.55,0 31.56,-3.84 45.01,-11.48 13.51,-7.56 24.13,-18.12 31.86,-31.5 7.72,-13.35 11.61,-28.35 11.61,-44.86 0,-16.57 -3.9,-31.58 -11.61,-44.93 -7.74,-13.38 -18.35,-23.87 -31.86,-31.5 -13.45,-7.65 -28.46,-11.39 -45.01,-11.39 -16.77,0 -31.92,3.75 -45.58,11.39 -13.58,7.64 -24.28,18.12 -32,31.5 -7.71,13.35 -11.6,28.36 -11.6,44.93 0,16.51 3.9,31.51 11.6,44.86zm209.82 90.34c-7.37,8.7 -16.01,15.36 -25.77,19.88 -9.86,4.63 -20.39,6.88 -31.73,6.88 -14.36,0 -27.8,-3.41 -40.26,-10.26 -12.55,-6.87 -26.83,-18.53 -42.99,-35.12 -21.58,-1.12 -40.98,-6.85 -58.31,-17.33 -17.28,-10.41 -30.8,-24.29 -40.5,-41.63 -9.7,-17.26 -14.5,-36.53 -14.5,-57.62 0,-22.01 5.24,-41.97 15.85,-59.81 10.53,-17.84 25.07,-31.86 43.59,-41.92 18.48,-10.1 39.29,-15.2 62.36,-15.2 22.85,0 43.52,5.1 62.07,15.2 18.47,10.05 32.91,24 43.38,41.77 10.47,17.77 15.65,37.74 15.65,59.96 0,18.68 -3.75,35.88 -11.25,51.61 -7.51,15.64 -18.06,28.79 -31.65,39.48 -13.58,10.7 -29.22,18.07 -46.84,22.25 7.57,7.99 14.93,13.86 22.01,17.42 7.09,3.61 14.29,5.44 21.74,5.44 16.06,0 30.07,-6.58 41.75,-19.62l15.38 18.63z"/>
    <path class="fil0" d="M21502.85 2826.04c-17,-17.41 -25.49,-42.48 -25.49,-75.1l0 -130.05 32.71 0 0 128.7c0,48.97 21.37,73.47 64.26,73.47 20.95,0 36.96,-6.01 48.07,-18.13 11.1,-12.02 16.63,-30.49 16.63,-55.34l0 -128.7 31.65 0 0 130.05c0,32.81 -8.44,57.97 -25.49,75.24 -16.93,17.33 -40.71,25.98 -71.15,25.98 -30.5,0 -54.22,-8.71 -71.21,-26.11z"/>
    <polygon class="fil0" points="21732.33,2620.94 21764.95,2620.94 21764.95,2849.57 21732.33,2849.57 "/>
    <polygon class="fil0" points="21966.8,2649.36 21888.45,2649.36 21888.45,2620.9 22077.5,2620.9 22077.5,2649.36 21999.14,2649.36 21999.14,2849.53 21966.8,2849.53 "/>
    <polygon class="fil0" points="22276.05,2821.12 22276.05,2849.52 22110.14,2849.52 22110.14,2620.96 22271.53,2620.96 22271.53,2649.35 22142.85,2649.35 22142.85,2719.55 22257.43,2719.55 22257.43,2747.31 22142.85,2747.31 22142.85,2821.12 "/>
    <polygon class="fil0" points="22532.09,2849.53 22531.74,2682.98 22449.13,2821.78 22434.13,2821.78 22351.54,2683.98 22351.54,2849.53 22320.1,2849.53 22320.1,2620.9 22346.92,2620.9 22442.28,2781.58 22536.36,2620.9 22563.1,2620.9 22563.46,2849.53 "/>
    <polygon class="fil0" points="22760.03,2664.05 22686.93,2664.05 22686.93,2620.94 22886.1,2620.94 22886.1,2664.05 22812.99,2664.05 22812.99,2849.5 22760.03,2849.5 "/>
    <path class="fil0" d="M23044.59 2674.35c-8.29,-6.88 -20.38,-10.26 -36.25,-10.26l-43.11 0 0 79.63 43.11 0c15.87,0 27.96,-3.47 36.25,-10.42 8.28,-7 12.38,-16.77 12.38,-29.43 0,-12.81 -4.11,-22.64 -12.38,-29.51zm13.36 175.18l-44.08 -63.63 -2.62 0 -46.01 0 0 63.63 -52.95 0 0 -228.63 98.96 0c20.24,0 37.86,3.39 52.73,10.2 14.94,6.71 26.39,16.26 34.46,28.71 8.08,12.4 12.13,27.05 12.13,44.04 0,16.98 -4.12,31.64 -12.26,43.95 -8.14,12.32 -19.75,21.73 -34.82,28.25l51.31 73.46 -56.85 0z"/>
    <path class="fil0" d="M23294.6 2760.39l-36.23 -87.57 -36.25 87.57 72.48 0zm16.66 40.21l-106.13 0 -20.25 48.92 -54.21 0 101.93 -228.56 52.24 0 102.21 228.56 -55.58 0 -20.22 -48.92z"/>
    <path class="fil0" d="M23556.76 2802.85c7.09,-4.61 10.61,-11.69 10.61,-21.24 0,-18.97 -14.01,-28.39 -42.13,-28.39l-61.7 0 0 56.49 61.7 0c13.95,0 24.45,-2.27 31.51,-6.86zm-93.22 -142.07l0 53.86 52.58 0c13.02,0 22.94,-2.26 29.67,-6.86 6.79,-4.55 10.11,-11.25 10.11,-20.26 0,-8.89 -3.33,-15.56 -10.11,-20.02 -6.74,-4.48 -16.65,-6.73 -29.67,-6.73l-52.58 0zm145.96 90.6c7.44,9.68 11.1,21.58 11.1,35.76 0,20.1 -7.79,35.45 -23.36,46.19 -15.57,10.78 -38.29,16.23 -68.1,16.23l-118.2 0 0 -228.65 111.71 0c27.88,0 49.26,5.33 64.2,16.01 14.85,10.68 22.29,25.13 22.29,43.47 0,11.11 -2.62,21.02 -7.92,29.71 -5.39,8.7 -12.83,15.5 -22.46,20.53 13.1,4.18 23.3,11.05 30.73,20.74z"/>
    <path class="fil0" d="M23792.28 2760.39l-36.24 -87.57 -36.23 87.57 72.47 0zm16.63 40.21l-106.1 0 -20.25 48.92 -54.21 0 101.92 -228.56 52.23 0 102.23 228.56 -55.58 0 -20.25 -48.92z"/>
    <polygon class="fil0" points="23908.65,2620.92 23961.58,2620.92 23961.58,2806.46 24076.2,2806.46 24076.2,2849.57 23908.65,2849.57 "/>
    <polygon class="fil0" points="24312.68,2620.92 24312.68,2849.57 24259.81,2849.57 24259.81,2755.83 24155.96,2755.83 24155.96,2849.57 24103.02,2849.57 24103.02,2620.92 24155.96,2620.92 24155.96,2711.04 24259.81,2711.04 24259.81,2620.92 "/>
    <path class="fil0" d="M24514.45 2799.11c10.88,-6.26 19.38,-14.88 25.62,-26 6.22,-11.12 9.33,-23.72 9.33,-37.89 0,-14.14 -3.12,-26.74 -9.33,-37.86 -6.24,-11.12 -14.73,-19.74 -25.62,-25.98 -10.92,-6.23 -23.09,-9.27 -36.61,-9.27 -13.52,0 -25.7,3.05 -36.6,9.27 -10.83,6.24 -19.4,14.85 -25.62,25.98 -6.17,11.11 -9.26,23.72 -9.26,37.86 0,14.17 3.1,26.76 9.26,37.89 6.22,11.11 14.78,19.74 25.62,26 10.9,6.21 23.08,9.25 36.6,9.25 13.52,0 25.69,-3.05 36.61,-9.25zm-100.73 38.98c-19.12,-10.19 -33.99,-24.29 -44.8,-42.26 -10.77,-17.98 -16.15,-38.15 -16.15,-60.61 0,-22.42 5.38,-42.59 16.15,-60.58 10.81,-17.92 25.69,-32.05 44.8,-42.25 19.04,-10.28 40.41,-15.37 64.12,-15.37 23.73,0 45.09,5.09 63.99,15.37 18.96,10.19 33.91,24.33 44.8,42.25 10.83,17.99 16.27,38.16 16.27,60.58 0,22.46 -5.44,42.63 -16.27,60.61 -10.89,17.97 -25.85,32.06 -44.8,42.26 -18.9,10.27 -40.27,15.37 -63.99,15.37 -23.72,0 -45.08,-5.1 -64.12,-15.37z"/>
    <path class="fil0" d="M24627.29 2845.13c-4.38,-4.24 -6.51,-9.61 -6.51,-16.13 0,-6.31 2.13,-11.63 6.51,-15.85 4.4,-4.27 9.57,-6.4 15.73,-6.4 6.08,0 11.17,2.07 15.29,6.26 4.17,4.09 6.22,9.46 6.22,15.99 0,6.52 -2.13,11.89 -6.36,16.13 -4.26,4.25 -9.29,6.37 -15.15,6.37 -6.16,0 -11.33,-2.12 -15.73,-6.37z"/>
    <path class="fil0" d="M21116.85 3144.29l-49.34 -112.05 -49.26 112.05 98.6 0zm11.45 26.12l-121.54 0 -25.12 57.18 -33.63 0 103.5 -228.62 32.33 0 103.84 228.62 -34.25 0 -25.14 -57.18z"/>
    <path class="fil0" d="M21236.09 3158.17c7.73,13.37 18.42,23.92 32,31.48 13.66,7.66 28.81,11.48 45.58,11.48 16.55,0 31.56,-3.83 45.01,-11.48 13.51,-7.57 24.13,-18.11 31.86,-31.48 7.72,-13.38 11.61,-28.38 11.61,-44.88 0,-16.57 -3.9,-31.55 -11.61,-44.94 -7.74,-13.38 -18.35,-23.86 -31.86,-31.49 -13.45,-7.66 -28.46,-11.4 -45.01,-11.4 -16.77,0 -31.92,3.75 -45.58,11.4 -13.58,7.64 -24.28,18.11 -32,31.49 -7.71,13.39 -11.6,28.37 -11.6,44.94 0,16.5 3.9,31.5 11.6,44.88zm209.82 90.31c-7.37,8.72 -16.01,15.37 -25.77,19.89 -9.86,4.62 -20.39,6.89 -31.73,6.89 -14.36,0 -27.8,-3.42 -40.26,-10.27 -12.55,-6.87 -26.83,-18.54 -42.99,-35.12 -21.58,-1.12 -40.98,-6.86 -58.31,-17.33 -17.28,-10.41 -30.8,-24.28 -40.5,-41.62 -9.7,-17.28 -14.5,-36.54 -14.5,-57.63 0,-22.01 5.24,-41.98 15.85,-59.82 10.53,-17.84 25.07,-31.77 43.59,-41.89 18.48,-10.14 39.29,-15.23 62.36,-15.23 22.85,0 43.52,5.09 62.07,15.23 18.47,10.11 32.91,23.98 43.38,41.75 10.47,17.76 15.65,37.73 15.65,59.96 0,18.68 -3.75,35.9 -11.25,51.61 -7.51,15.63 -18.06,28.8 -31.65,39.49 -13.58,10.69 -29.22,18.05 -46.84,22.24 7.57,8 14.93,13.86 22.01,17.4 7.09,3.63 14.29,5.44 21.74,5.44 16.06,0 30.07,-6.57 41.75,-19.6l15.38 18.62z"/>
    <path class="fil0" d="M21502.85 3204.05c-17,-17.4 -25.49,-42.45 -25.49,-75.1l0 -130.03 32.71 0 0 128.69c0,48.99 21.37,73.48 64.26,73.48 20.95,0 36.96,-6.03 48.07,-18.12 11.1,-12.04 16.63,-30.5 16.63,-55.36l0 -128.69 31.65 0 0 130.03c0,32.85 -8.44,57.99 -25.49,75.24 -16.93,17.37 -40.71,26 -71.15,26 -30.5,0 -54.22,-8.71 -71.21,-26.13z"/>
    <polygon class="fil0" points="21732.33,2999.01 21764.95,2999.01 21764.95,3227.62 21732.33,3227.62 "/>
    <polygon class="fil0" points="21966.8,3027.4 21888.45,3027.4 21888.45,2998.92 22077.5,2998.92 22077.5,3027.4 21999.14,3027.4 21999.14,3227.55 21966.8,3227.55 "/>
    <polygon class="fil0" points="22276.05,3199.17 22276.05,3227.53 22110.14,3227.53 22110.14,2998.97 22271.53,2998.97 22271.53,3027.38 22142.85,3027.38 22142.85,3097.58 22257.43,3097.58 22257.43,3125.32 22142.85,3125.32 22142.85,3199.17 "/>
    <polygon class="fil0" points="22532.09,3227.58 22531.74,3061.02 22449.13,3199.84 22434.13,3199.84 22351.54,3062 22351.54,3227.58 22320.1,3227.58 22320.1,2998.93 22346.92,2998.93 22442.28,3159.61 22536.36,2998.93 22563.1,2998.93 22563.46,3227.58 "/>
    <polygon class="fil0" points="22765.59,3041.44 22765.59,3101.81 22871.41,3101.81 22871.41,3144.27 22765.59,3144.27 22765.59,3227.59 22712.64,3227.59 22712.64,2998.97 22885.42,2998.97 22885.42,3041.44 "/>
    <path class="fil0" d="M22945.52 3204.38c-18.18,-18.06 -27.25,-43.9 -27.25,-77.38l0 -128.04 52.87 0 0 126.06c0,40.92 17,61.35 50.96,61.35 16.58,0 29.18,-4.94 37.89,-14.79 8.7,-9.97 13.08,-25.48 13.08,-46.56l0 -126.06 52.25 0 0 128.04c0,33.47 -9.06,59.32 -27.24,77.38 -18.2,18.11 -43.62,27.09 -76.31,27.09 -32.65,0 -58.05,-8.98 -76.25,-27.09z"/>
    <polygon class="fil0" points="23223.77,3042.08 23150.63,3042.08 23150.63,2998.97 23349.83,2998.97 23349.83,3042.08 23276.7,3042.08 23276.7,3227.53 23223.77,3227.53 "/>
    <path class="fil0" d="M23402.38 3204.38c-18.18,-18.06 -27.24,-43.9 -27.24,-77.38l0 -128.04 52.86 0 0 126.06c0,40.92 17,61.35 50.97,61.35 16.57,0 29.17,-4.94 37.89,-14.79 8.7,-9.97 13.08,-25.48 13.08,-46.56l0 -126.06 52.24 0 0 128.04c0,33.47 -9.06,59.32 -27.24,77.38 -18.2,18.11 -43.62,27.09 -76.31,27.09 -32.65,0 -58.05,-8.98 -76.25,-27.09z"/>
    <path class="fil0" d="M23766.45 3052.37c-8.27,-6.89 -20.39,-10.26 -36.23,-10.26l-43.11 0 0 79.63 43.11 0c15.84,0 27.96,-3.48 36.23,-10.42 8.3,-7 12.4,-16.77 12.4,-29.43 0,-12.81 -4.11,-22.65 -12.4,-29.51zm13.39 175.18l-44.1 -63.63 -2.61 0 -46.01 0 0 63.63 -52.95 0 0 -228.63 98.96 0c20.25,0 37.86,3.38 52.73,10.19 14.92,6.72 26.39,16.29 34.46,28.72 8.07,12.41 12.1,27.05 12.1,44.04 0,16.98 -4.09,31.64 -12.23,43.94 -8.15,12.32 -19.75,21.73 -34.83,28.25l51.32 73.47 -56.84 0z"/>
    <path class="fil0" d="M24019.9 3177.12c10.9,-6.22 19.4,-14.87 25.62,-26 6.25,-11.11 9.35,-23.71 9.35,-37.85 0,-14.16 -3.11,-26.76 -9.35,-37.88 -6.22,-11.1 -14.71,-19.76 -25.62,-25.97 -10.9,-6.26 -23.09,-9.28 -36.6,-9.28 -13.5,0 -25.69,3.03 -36.58,9.28 -10.83,6.21 -19.4,14.86 -25.65,25.97 -6.14,11.11 -9.26,23.72 -9.26,37.88 0,14.14 3.13,26.73 9.26,37.85 6.25,11.12 14.81,19.78 25.65,26 10.89,6.22 23.08,9.26 36.58,9.26 13.51,0 25.7,-3.05 36.6,-9.26zm-100.72 39.01c-19.11,-10.2 -33.98,-24.28 -44.81,-42.28 -10.75,-17.97 -16.13,-38.15 -16.13,-60.58 0,-22.44 5.38,-42.63 16.13,-60.61 10.83,-17.89 25.71,-32.06 44.81,-42.25 19.03,-10.25 40.43,-15.35 64.12,-15.35 23.72,0 45.1,5.1 63.98,15.35 18.98,10.18 33.91,24.36 44.82,42.25 10.81,17.98 16.27,38.17 16.27,60.61 0,22.43 -5.46,42.61 -16.27,60.58 -10.91,18 -25.85,32.07 -44.82,42.28 -18.88,10.25 -40.27,15.35 -63.98,15.35 -23.7,0 -45.09,-5.1 -64.12,-15.35z"/>
    <path class="fil0" d="M24132.75 3223.15c-4.4,-4.24 -6.52,-9.62 -6.52,-16.14 0,-6.31 2.12,-11.59 6.52,-15.85 4.38,-4.24 9.55,-6.37 15.72,-6.37 6.08,0 11.16,2.06 15.28,6.23 4.18,4.11 6.22,9.49 6.22,15.99 0,6.52 -2.12,11.9 -6.36,16.14 -4.25,4.24 -9.26,6.37 -15.14,6.37 -6.17,0 -11.34,-2.13 -15.72,-6.37z"/>
    <path class="fil0" d="M21074.3 1007.6c19.04,-10.26 40.83,-15.42 65.33,-15.42 37.44,0 69.42,13.3 95.91,39.77l40.77 -39.77c-16.29,-18.57 -36.32,-32.64 -60.18,-42.21 -23.86,-9.63 -50.32,-14.44 -79.47,-14.44 -35.75,0 -68.04,7.74 -96.69,23.16 -28.61,15.35 -51.1,36.66 -67.31,63.84 -16.21,27.19 -24.36,57.77 -24.36,91.96 0,34.12 8.15,64.75 24.36,91.87 16.21,27.18 38.57,48.49 67.09,63.85 28.45,15.43 60.46,23.14 95.9,23.14 25.21,0 49.71,-3.82 73.56,-11.39 23.84,-7.66 44.73,-18.63 62.64,-32.84l0 -138.67 -61.15 0 0 108.37c-20.52,11.9 -44.38,17.92 -71.57,17.92 -24.2,0 -45.79,-5.33 -64.83,-15.93 -19.04,-10.62 -33.99,-25.21 -44.74,-43.75 -10.75,-18.53 -16.13,-39.43 -16.13,-62.55 0,-23.94 5.38,-45.11 16.13,-63.64 10.75,-18.55 25.71,-32.99 44.74,-43.25z"/>
    <path class="fil0" d="M21645.53 1177.31c-10.61,18.75 -25.14,33.27 -43.74,43.73 -18.56,10.42 -39.43,15.65 -62.57,15.65 -23.22,0 -44.1,-5.23 -62.64,-15.65 -18.54,-10.46 -33.12,-24.99 -43.74,-43.73 -10.55,-18.71 -15.84,-39.71 -15.84,-62.86 0,-23.22 5.29,-44.16 15.84,-62.85 10.62,-18.75 25.21,-33.34 43.74,-43.75 18.54,-10.38 39.43,-15.62 62.64,-15.62 23.15,0 44.01,5.24 62.57,15.62 18.61,10.41 33.13,25.01 43.74,43.75 10.61,18.69 15.91,39.64 15.91,62.85 0,23.16 -5.3,44.15 -15.91,62.86zm-10.41 -218.66c-28.52,-15.43 -60.52,-23.08 -95.9,-23.08 -35.46,0 -67.46,7.65 -95.91,23.08 -28.53,15.44 -50.9,36.81 -67.09,64.06 -16.22,27.39 -24.37,57.92 -24.37,91.74 0,33.77 8.15,64.35 24.37,91.68 16.19,27.3 38.56,48.7 67.09,64.12 28.45,15.35 60.46,23.07 95.91,23.07 35.39,0 67.38,-7.72 95.9,-23.07 28.45,-15.42 50.83,-36.74 67.04,-63.84 16.27,-27.18 24.42,-57.84 24.42,-91.96 0,-34.11 -8.15,-64.77 -24.42,-91.94 -16.21,-27.18 -38.59,-48.42 -67.04,-63.86z"/>
    <polygon class="fil0" points="21940.7,1208.86 21824.9,940.53 21754.81,940.53 21906.95,1288.37 21970.49,1288.37 22122.12,940.53 22057.49,940.53 "/>
    <polygon class="fil0" points="22243.37,1138.31 22411.33,1138.31 22411.33,1085.15 22243.37,1085.15 22243.37,994.69 22432.72,994.69 22432.72,940.53 22178.75,940.53 22178.75,1288.37 22439.65,1288.37 22439.65,1234.22 22243.37,1234.22 "/>
    <path class="fil0" d="M22671.7 1133.81l-75.52 0 0 -138.67 75.52 0c28.18,0 49.56,6.03 64.15,17.93 14.57,11.95 21.87,29 21.87,51.18 0,22.22 -7.3,39.35 -21.87,51.44 -14.59,12.09 -35.97,18.12 -64.15,18.12zm131.95 -1.95c12.74,-18.91 19.12,-41.43 19.12,-67.61 0,-25.49 -5.96,-47.5 -17.84,-66.12 -11.97,-18.56 -29.09,-32.77 -51.46,-42.69 -22.38,-9.97 -48.64,-14.92 -78.77,-14.92l-143.15 0 0 347.89 64.63 0 0 -101.42 78.51 0c5.94,0 10.46,-0.14 13.44,-0.51l71.07 101.93 69.58 0 -80.05 -114.31c23.84,-9.28 42.18,-23.37 54.92,-42.24z"/>
    <polygon class="fil0" points="23159.7,1176.07 22967.88,940.52 22914.71,940.52 22914.71,1288.41 22978.78,1288.41 22978.78,1052.82 23170.68,1288.41 23223.84,1288.41 23223.84,940.52 23159.7,940.52 "/>
    <path class="fil0" d="M23605.96 1177.31c-10.61,18.75 -25.2,33.27 -43.73,43.73 -18.54,10.42 -39.43,15.65 -62.58,15.65 -23.22,0 -44.07,-5.23 -62.64,-15.65 -18.54,-10.46 -33.12,-24.99 -43.73,-43.73 -10.53,-18.71 -15.85,-39.71 -15.85,-62.86 0,-23.22 5.32,-44.16 15.85,-62.85 10.61,-18.75 25.2,-33.34 43.73,-43.75 18.57,-10.38 39.43,-15.62 62.64,-15.62 23.16,0 44.04,5.24 62.58,15.62 18.54,10.41 33.12,25.01 43.73,43.75 10.62,18.69 15.93,39.64 15.93,62.85 0,23.16 -5.31,44.15 -15.93,62.86zm-10.39 -218.66c-28.53,-15.43 -60.53,-23.08 -95.92,-23.08 -35.46,0 -67.45,7.65 -95.9,23.08 -28.51,15.44 -50.89,36.81 -67.1,64.06 -16.21,27.39 -24.36,57.92 -24.36,91.74 0,33.77 8.15,64.35 24.36,91.68 16.21,27.3 38.59,48.7 67.1,64.12 28.45,15.35 60.45,23.07 95.9,23.07 35.4,0 67.39,-7.72 95.92,-23.07 28.46,-15.42 50.81,-36.74 67.02,-63.84 16.29,-27.18 24.42,-57.84 24.42,-91.96 0,-34.11 -8.13,-64.77 -24.42,-91.94 -16.21,-27.18 -38.56,-48.42 -67.02,-63.86z"/>
    <path class="fil0" d="M24193.59 1177.31c-10.38,18.04 -25.34,31.98 -44.71,41.76 -19.41,9.77 -41.85,14.64 -67.32,14.64l-84.51 0 0 -238.53 84.51 0c25.48,0 47.91,4.88 67.32,14.66 19.38,9.76 34.33,23.71 44.71,41.76 10.41,18.05 15.65,39 15.65,62.85 0,23.87 -5.24,44.81 -15.65,62.86zm-10.18 -215.19c-28.79,-14.43 -61.78,-21.6 -98.88,-21.6l-152.05 0 0 347.84 152.05 0c37.1,0 70.09,-7.23 98.88,-21.59 28.81,-14.44 51.18,-34.84 67.11,-61.15 15.91,-26.32 23.86,-56.71 23.86,-91.18 0,-34.47 -7.95,-64.82 -23.86,-91.17 -15.93,-26.41 -38.3,-46.71 -67.11,-61.15z"/>
    <path class="fil0" d="M24631.66 1177.31c-10.61,18.75 -25.21,33.27 -43.74,43.73 -18.56,10.42 -39.43,15.65 -62.58,15.65 -23.22,0 -44.09,-5.23 -62.64,-15.65 -18.53,-10.46 -33.12,-24.99 -43.73,-43.73 -10.55,-18.71 -15.85,-39.71 -15.85,-62.86 0,-23.22 5.3,-44.16 15.85,-62.85 10.61,-18.75 25.21,-33.34 43.73,-43.75 18.55,-10.38 39.43,-15.62 62.64,-15.62 23.16,0 44.02,5.24 62.58,15.62 18.54,10.41 33.13,25.01 43.74,43.75 10.61,18.69 15.91,39.64 15.91,62.85 0,23.16 -5.3,44.15 -15.91,62.86zm56.62 -154.8c-16.21,-27.18 -38.58,-48.42 -67.03,-63.86 -28.53,-15.43 -60.53,-23.08 -95.91,-23.08 -35.45,0 -67.45,7.65 -95.9,23.08 -28.53,15.44 -50.91,36.81 -67.1,64.06 -16.21,27.39 -24.36,57.92 -24.36,91.74 0,33.77 8.15,64.35 24.36,91.68 16.19,27.3 38.57,48.7 67.1,64.12 28.45,15.35 60.46,23.07 95.9,23.07 35.39,0 67.38,-7.72 95.91,-23.07 28.45,-15.42 50.82,-36.74 67.03,-63.84 16.28,-27.18 24.43,-57.84 24.43,-91.96 0,-34.11 -8.15,-64.77 -24.43,-91.94z"/>
    <path class="fil0" d="M21525.12 1908.71c29.82,-25.49 44.74,-61.73 44.74,-108.88 0,-47.07 -14.92,-83.58 -44.74,-109.58 -29.79,-25.9 -74.04,-38.92 -132.64,-38.92l-158.56 0 0 295.59 158.56 0c58.61,0 102.85,-12.74 132.64,-38.22zm122.6 -436.9c67.25,30.31 119.14,73.57 155.74,129.77 36.44,56.27 54.78,122.38 54.78,198.26 0,75.96 -18.34,141.78 -54.78,197.57 -36.6,55.78 -88.49,98.72 -155.74,129.04 -67.3,30.29 -146.6,45.44 -237.97,45.44l-175.83 0 0 263.8 -285.53 0 0 -1009.31 461.35 0c91.38,0 170.67,15.15 237.97,45.44z"/>
    <polygon class="fil0" points="21910.11,1426.4 22195.6,1426.4 22195.6,2435.72 21910.11,2435.72 "/>
    <path class="fil0" d="M22962.61 2029.09l-129.76 -322.99 -129.75 322.99 259.5 0zm83.67 210.51l-426.83 0 -79.27 196.07 -291.28 0 445.52 -1009.23 281.22 0 446.92 1009.23 -297 0 -79.27 -196.07z"/>
    <path class="fil0" d="M23482.38 2333.31c-83.16,-81.67 -124.72,-197.47 -124.72,-347.47l0 -559.4 285.48 0 0 550.76c0,161.48 63.91,242.22 191.74,242.22 126.94,0 190.36,-80.74 190.36,-242.22l0 -550.76 281.14 0 0 559.4c0,150 -41.55,265.8 -124.72,347.47 -83.11,81.77 -199.68,122.6 -349.61,122.6 -149.98,0 -266.56,-40.83 -349.67,-122.6z"/>
    <polygon class="fil0" points="24669.72,1426.41 24669.72,1426.41 24384.27,1426.41 24384.27,1609.88 "/>
    <polygon class="fil0" points="24384.24,1692.79 24384.24,2435.67 24669.72,2435.67 24669.72,1509.32 "/>
    <polygon class="fil0" points="21156.91,1161.53 21271.86,1161.53 21271.86,1110.49 21156.91,1110.49 "/>
   </g>
   <g>
    <path class="fil1" d="M1395.96 1617.09c-2.78,-12.85 7.88,-23.19 14.63,-28.48 13.12,-10.27 19.5,-7.11 35.06,-3.17 26.6,6.73 49.34,7.8 71.4,21.05 25.23,15.16 30.52,17.68 61.28,28.24 28.02,9.61 23.08,36.28 43.09,49.37 14.99,9.8 121.25,0.12 72.67,82.6 -13.26,22.51 -27.24,29.54 -27.68,61.08 -0.49,35.19 -6.84,47.29 -17.07,76.03 -17.14,48.18 -10.86,104.24 -86.32,90.45 -46.77,-8.55 -82.55,-43.32 -90.14,-90.43 -8.37,-51.99 -12.24,-106.87 -28.18,-154.66 -13.03,-39.05 -9.75,-33.21 -13,-77.4 -2.86,-39.01 -32.98,-41.96 -35.73,-54.69zm252.73 -141.57c4.42,-22.64 26.71,-43.1 46.92,-50.27l17.17 47.6c-14.4,-0.66 -19.21,-3.17 -32.38,-1.28 -12.69,1.81 -19.61,5.39 -31.71,3.95zm-142.16 -39.73c12.26,4.78 22.16,20.08 29.08,30.54 19.19,28.96 57.52,68.17 86.77,73.36 14.69,2.62 12.71,-1.96 21.25,-9.64 0.55,0.74 1.09,1.09 1.28,2.43 0.19,1.31 0.96,1.84 1.22,2.42l2.08 4.78c12.53,28.14 17.25,5.26 20.35,25.81 -29.79,10.51 -91.28,-18.05 -110.93,-31.67 -22.83,-15.82 -50.51,-55.31 -51.1,-98.01zm643.2 -6.69c-1.74,-14.51 -6.1,-12.31 33.84,-19.12 6.42,5.52 2.8,1.24 7.92,10.35 2.49,4.46 4.82,9 6.92,13.7l-48.67 -4.94zm-634.91 -89.96c5.64,-31.44 37.08,-54.4 71.05,-58.21 -6.38,17.99 -16.89,24.21 -30.16,34.05 -13.97,10.35 -22.8,18.34 -40.89,24.16zm-137.09 -719.14l-9.65 -23.07 38.57 -1.29 11.66 31.89c-28.79,10.23 -47.39,31.91 -61.9,60.31l-21.85 -1.87c7.68,-9.39 18.19,3.04 3.19,-21.26 -5.43,-8.81 -8.84,-13.29 -13.37,-23.59l53.36 -21.13zm93.83 -54.06l-8.5 -23.73c18.05,-1.8 4.87,-1.61 14.43,9.66 7.54,-4.15 7.9,-5.51 17.61,-3.93l-1.14 23.23c-0.11,0.52 -0.46,1.44 -0.59,1.94l-2 5.37c-1.25,4.14 1.91,-1.54 -1.08,5.89l-31.84 3.65 -7.41 17.55 -26.99 0.43 -5.59 -31.63c10.77,8.24 42.29,21.37 35.56,-6.25 20.55,4.32 13.33,1.62 17.53,-2.18zm-1450.94 3089.94l1765.14 -63.66 -200.06 -352.12c-7.1,-9.9 -38.78,-31.73 -48.91,-40.15 -8.87,-7.37 -16.49,-13.76 -23.94,-20.83l-70.28 -63.82c-16.43,-15.38 -30.96,-24.74 -46.17,-43.32 -28.91,-35.34 -117.3,-110.45 -174.87,-182.93 -54.9,-69.14 -109.52,-127.02 -151.39,-206.52 -23.79,-45.16 -22.96,-102.75 -13.51,-156.34 4.67,-26.49 29.71,-122.95 40.69,-139.24 90.94,33.48 456.93,339.77 539.71,412.54l146.93 140.55c14.26,14.81 15.77,46.93 20.65,74.73 6.8,38.69 18.72,131.56 33.14,159.67l33.23 9.03c15.51,-3.17 19.97,-6.97 32.27,-16.01l91.28 -68.01c0.44,-66.13 -21.68,-85.11 29.48,-108.6 -9.62,-6.64 -9.87,-1.91 -11.21,-17.23 29.8,2.15 -3.32,21.35 32.28,3.58 9.92,-4.96 26.51,-8.45 36.91,-11.21 -4.01,-14.93 -18.39,-31.19 -25.47,-45.39l18.07 -22.36 -25.38 -3.62 4.26 -25.27 -19.38 0.23 1.48 37.12 -50.55 -2.62c2.61,-37.13 6.7,-23.56 -11.19,-53.77 6.73,-5.31 6.43,-3.5 17.91,-4.16 -0.9,-7.01 -2.42,-11.04 -4.16,-17.02l16.9 -1.19 -6.51 -19.25c-15.77,5.36 -16.56,13 -32.4,17.46l-16.96 -36.84 -2.25 51.41 -20.75 10.27 4.41 -38.94 -20.85 -13.7 6.85 -37.38 39.35 7.28 -11.44 -29.99c49.98,-19.53 45.98,-26.66 101.47,-29.67 9.9,-15.22 19.06,-19.67 17.04,-43.59 -13.2,-6.21 13.4,5.04 -7.28,-2.21 -0.76,-0.26 -1.77,-0.57 -2.58,-0.87l-7.98 -3.31c3.24,-18.24 6.05,-22.32 -5.75,-34 -42.56,-42.12 -16.53,-21.56 -14.6,-52.35 0.54,-8.54 -3.94,-18.45 -5.71,-27.24 4.33,3.72 7.27,6.6 11.75,10.97l18.2 14.09 -4.2 -29.66 28.87 -1.45c-23.15,-21.16 -23.01,-7.7 -38.47,-37.93 -0.27,-0.52 -0.73,-1.57 -1.28,-2.24 -6.91,6.6 -10.01,10.48 -22.31,11.89 -8.97,-12.38 -7.19,-25.04 -10.11,-43.02 -9.6,5.32 -7.24,9.51 -16.23,10.11l-2.01 -48.89 -26.12 10.64 6.29 -36.21c51.07,-4.55 27.86,1.11 41.75,9.92 6.24,-2.47 -2.26,2.42 7.27,-7.12 2.62,-2.63 -3.73,-6.77 8.21,-5.26 9.45,1.19 5.4,8.28 13.28,17.48 27.18,2 41.63,-7.39 49.98,14.95 3.64,-4.39 1.92,-0.96 4.62,-7.72 1.23,-3.08 1.69,-6.93 2.21,-9.63 39.1,0.36 25.29,10.94 42.95,15.72 18.63,5.04 30.96,-9.86 50.95,-0.22 15.99,7.71 -4.25,4.75 18.66,6.28 25.89,1.72 50.64,9.44 77.5,11.03l9.75 -24.27c-14.14,-8.07 -26.31,-22.34 -46.45,-22.22l-0.15 23c-66.37,-33.37 -81.07,-88.49 -97.11,-91.47l3.52 32.45c10.53,3.26 10.41,-1.81 15.41,7.99 -5.15,2.94 1.53,1.92 -6.48,1.52 -1.65,-0.09 -4.97,-0.84 -6.81,-1.45 -20.33,-6.69 -22.09,-18.57 -43.6,-23.13l9.04 36.59c-29.66,-13.34 -25.97,-41.54 -39.25,-63.78 -17.35,20.27 -9.76,10.98 -33.57,19.74 -18.77,6.91 -10.07,22.46 -15.68,37.55 -10.09,-4.32 -9.44,-12.28 -11.08,-23.91 -3.6,-25.54 -17.62,-46.4 -41.91,-58.33 -11.6,6.74 -20.44,12.88 -30.24,19.41 -18.15,12.07 -13.73,10.8 -26.05,25.17 -9.99,11.67 -37.07,44.55 -47.33,51.45 7.44,-8.22 8.67,-9.68 12.88,-19.45l-37.03 11.75 12.4 -33.12 -93.97 31.84c-3.46,-20.53 3.26,-13.84 12.18,-23.74 7.57,-8.4 14.6,-14.57 14.45,-25.76 -25.21,7.05 -1.4,20.04 -60.27,18.5l15.16 -24.53 -24.6 0.42c-11.83,14.84 5.04,14.7 -40.58,10.31 -17.39,-1.68 -37.85,2.4 -50.74,-0.44 -39.03,-8.58 -40.63,-24.64 -86.93,-15.18l3.79 -19.34c-48.31,-7.12 -28.09,-18.64 -44.78,-41.91 -20.27,-28.23 -10.65,-0.92 -20.61,-46.15 -4.84,-21.95 -16.37,-18.54 -36.27,-23.38l-0.5 -16.77 17.62 2.74c4.36,-27.11 28.97,-105.2 41.76,-121.83 19.11,7.74 12.32,15.22 8.05,34.03 4.5,2.71 0.97,0.01 5.12,2.42 7.09,4.11 1.87,0.53 6.08,3.98 -6.17,45.17 -7.37,30.94 20.83,29.11 12.8,50.31 7.44,51.46 38.21,81.14 37.93,36.58 41.8,-15.31 64.48,-22.67 0.77,13.61 -2.61,8.63 -4.63,20.23 -1.99,11.38 -31.65,36.28 -45.34,36.44 -4.51,0.04 -9.34,-1.89 -14.96,-2.7l-17.37 2.21c40.28,20.87 101.89,-0.63 114.99,-28.79 30.38,-65.23 10.03,-34.19 60.12,-61.33l11.65 -6.78c6.26,-1.7 12.04,0.5 17.95,1.85l4.49 16.19c23.62,1.25 12.58,1.22 27.1,8.65l12.42 -40.18c2.22,-10.81 0.14,-11.07 -0.56,-11.86 29.3,-3.05 24.68,-7.29 39.62,10.59l18.15 -2.54c-8.74,7.05 -18.14,7.91 -20.81,18.55 15.76,1.18 57.4,-24.63 66.56,-35.68 39.25,10.82 54.86,16.09 97.54,9.02 21.22,-3.51 18.38,-5.91 29.61,4.58 -4.03,9.55 -17.07,14.64 -25.92,17.84 -33.36,12.08 -0.41,-8.6 -29.9,-5.73 -9.85,0.96 -22.6,10.14 -35.79,8.56 -15.55,-1.88 -11.28,-12.49 -18.16,-24.96 -11.75,5.49 -8.85,13.99 -13.23,27.46l-2.99 6.96c-0.23,0.51 -0.75,1.49 -1.17,2.21 -32.93,-22.57 -36.08,-8.39 -44.03,25.02 -15.97,67 -64.18,72.57 -69.95,106.49 22.81,-1.46 17.05,-6.47 33.7,-11.9l-9.49 28.5c15.39,-9.82 31.04,-33.71 45.05,-39.69l5.59 25.74c6.24,-3.8 1.71,1.22 6.32,-4.8 8.6,-11.22 6.06,-23.09 2.94,-35.27 49.64,5.54 25.38,-12.74 52.25,-28.45 13.84,6.59 7.51,8.99 15.97,19.07 8.97,-24.13 -0.72,-72.2 40.73,-62.37 16.73,3.97 9.84,9.69 24.51,15.81l11.03 -13.48c14.7,16.1 27.16,41.55 57.39,31.45 -1.98,-22.59 -35.11,-28 -42.03,-50.48 10.64,0.75 17.13,1.43 27.27,5.65 3.47,1.44 8.3,4.07 10.4,5.47l9.72 7.95 -0.94 35.13c39.43,29.08 35.87,-22.28 27.84,-51.1l19.37 -20.42 8.48 18.16 6.3 -16.19c12.72,15.94 23.04,30.8 33.84,46.11l17.44 -0.22c-2.22,-12.47 -7.67,-15.16 -12.59,-27.83l17.08 7.33c-6.63,-18.49 -7.5,-22.54 -22.44,-32.49l5.45 -18.52 7.87 14.16 39.83 2.46c-7.27,-22.2 -15.89,-14.39 -17.32,-39.64 16.31,-8.57 29.67,-11.66 38,-29.14 3.2,-6.72 4.04,-11.91 -0.39,-16.24 -16.1,-11.87 -18.15,0.82 -28.5,4.91 -17.76,7.01 -5.44,1.49 -19.44,-8.01 -0.59,-0.39 -1.71,-1.02 -2.21,-1.34 -0.5,-0.33 -1.55,-0.83 -2.3,-1.3 5.1,-21.54 -6.34,-26.19 -32.76,-42.8 -2.56,-1.61 -6,-3.37 -8.76,-4.51 -0.75,-0.3 -1.62,-0.58 -2.38,-0.86l-4.76 -1.55c-0.63,-0.2 -1.81,-0.56 -2.32,-0.72 -0.5,-0.16 -1.57,-0.36 -2.3,-0.69 7.82,-78.76 15.9,-159.79 17.58,-239.67 1,-47.45 4.68,-22.19 14.77,-47.35 4.56,-11.31 2.73,-46.41 0.77,-59.35 -3.54,-23.33 -38.95,-72.73 -26.55,-94.14 14.15,5.7 29.62,49.19 40.36,62.42 3.71,-41.24 4.24,-22.58 -10.44,-34.06 -2.9,-59.91 2.28,-36.13 12.7,-76.69 -6.39,-9.28 -8.65,-11.47 -17.45,-18.42l10.37 -36.08 45.58 -1.58c3.82,-21.58 -3.2,-43.51 -12.56,-55.74 20.31,-13.64 38.95,-12.43 18.32,-74.14 -1.22,-3.63 -2.79,-8.19 -4.46,-11.49l-8.93 -11.63c-30.88,24.43 -62.25,95.86 -111.24,97.64 -6.77,-33.3 4.78,-38.11 -12.21,-47.03l21.86 -10.26c-2.03,-27.07 3.51,-34.79 -0.76,-62.1l-44.57 7.03c-0.84,11.14 0.93,11.39 -3.24,19.19 -5.72,-7.7 -5.7,-22.14 -6.61,-31.64l-16.49 -5.6 15.62 -36.8 41.92 -0.93c0.13,-13.82 -22.38,-35.74 -26.76,-51.38 18.19,-3.05 22.66,1.92 20.16,-16.18l-37.12 6.91c3.37,-20.41 4.01,-26.5 -1.29,-44.28 -6.48,-3.22 -13.06,-0.87 -20.57,0.94l-7.37 -28.51 12.73 -5.31 -1.23 -23.08 25.28 4.44 -1.07 -38.93c45.56,-7.94 68.38,0.98 107.96,4.24l-34.23 -18.85c4.2,-9.9 8.05,-12.49 12.01,-22.47 -9.8,2.63 -11.26,4.96 -20.28,8l16.89 -81.99c10.58,1.28 15.32,4.49 21.39,1.39 -1.08,-4.71 3.66,-3.4 -11.82,-9.2 -7.59,-2.84 -11.3,-2.96 -18.73,-6.78 2.47,-10.55 6.33,-13.3 9.89,-22.37l-19.29 -2.84 5.2 -20.32 -39.25 -5.65c-2.05,-15.82 -1.77,-35.81 -10.09,-48.8l5.63 -25.12 -36.08 -1.13c8.3,-21.8 17.49,-46.77 32.24,-59.09l-15.46 -6.4 8.06 -38.08 -33.44 -29.03c-10.22,-8.48 -5.98,-2.82 -11.08,-14.28l18.91 -3.65 -22.5 -5.65c10.38,-3.22 20.17,-7.35 30.76,-11.39 14.13,-5.41 17.01,-5.98 26.61,2.19 0.39,0.33 1.11,1.29 1.87,1.62l34.83 -14.23c1.66,-11.75 -1.77,-23.8 -4.26,-34.45l14.07 -9.64c14,-13.2 -11.88,3.89 3.1,-2.98l15.1 15.23 -17.76 31.1c39.35,0.22 33.37,-4.99 36.03,-43.31 14.46,-7.46 12.16,9.85 12.4,-15.97 -10.65,-9.32 -19.56,3.03 -26.35,-9.58 3.71,-10.3 -4.91,-7.99 35.05,-5.85 14.9,0.8 29.84,1.3 44.74,1.71 0.29,-0.71 0.4,-2.73 0.41,-2.25l-1.2 -10.12 45.52 -2.53c1.44,3.29 0.17,1.49 1.44,7.17 2.18,9.74 5.72,15.88 14.53,22.19 11.39,-5.24 26.56,-25.6 31.24,-33.52l10.29 23.72c5.98,-3.71 9.91,-6.91 15.52,-10.46 0.29,-11.64 -1.33,-17.43 -2.41,-28.57 -1.9,-19.6 -0.17,-16.06 6.84,-28.56 -3.9,-4.09 -1.59,-2.2 -7.34,-6.33l-29.07 -15.68c-137.28,-67.69 -319.03,-76.85 -325.44,-80.23l-131.15 0c-18.42,9.04 -195.18,1.29 -405.96,101.59 -31.22,14.85 -179.96,105.28 -195.11,124.65 -98.56,126.03 -234.83,185.11 -269.55,426.9 -9.9,69.01 -20.21,165.19 -20.44,235.05 -0.12,35.59 1.35,150.48 7.59,183.61 3.62,19.19 9.26,31.99 6.94,52 -22.37,17.57 -28.12,7.28 -53.97,15.88 -74.6,24.82 -71.78,51.6 -91.79,80.74 -5.5,8 -7.79,8.28 -13.17,18.64 -17.08,32.88 -15.8,77.65 -21.58,116.59 -6.86,46.26 -9.89,75.44 -0.17,120.37 14.28,66.08 43.92,142.51 90.55,184.13 22.26,19.87 45.71,48.71 74.54,62.93 27.28,13.47 84.13,14.2 100.25,34.12 6.99,15.35 -5.04,55.57 -5.64,76.57 -3.21,112.88 28.51,61.38 -18.78,225.35 -18.37,63.71 -22.59,40.28 -65.52,110.06 -83.33,135.43 -120.22,181.71 -219.33,304.56 -43.42,53.81 -151.29,107.55 -215.73,131.81 -634.55,173.34 -589.31,597.41 -548.75,685.64zm1784.83 -4.08l1763.69 12.97 -34.91 -261.63c-23.79,-62.48 -425.4,-233.95 -451.86,-265.3 9.98,-5.34 11.24,0.12 15.69,-9.58 -6.11,-9.97 2.87,-0.76 -12.22,-7.66l-8.21 -21.29c-32.36,-4.73 -15.64,-0.89 -25.49,-31.36 -8.05,-24.9 -100.48,-34.76 -123.84,-38.95 -82.46,-14.79 -281.95,-58.38 -355.6,-85.43 -26.86,-9.86 -52.11,-20.28 -78.61,-29.75 -29.74,-10.62 -50.44,-23.63 -76.53,-32.25 -28.97,-9.58 -57.86,-16.91 -83.91,-27.93 -34.64,-14.68 -41.84,-28.88 -79.77,-10.14 -8.13,4.02 -49.26,44.37 -59.13,53.13 -55.55,49.27 -41.52,24.65 -46.58,62.01 -3.73,27.41 -48.13,139.27 -61.15,159.51 -37.75,58.64 -245.81,486.69 -281.58,533.65zm742.5 -2028.39c-17.2,-11.5 -33.84,-0.7 -30.44,-29.6 51.35,12.48 135.25,52.49 149.8,113.49 -35.15,-12.09 -42.51,-41.54 -73.86,-62.34 -16.04,-10.64 -31.12,-11.93 -45.5,-21.55zm-204.57 -121.36c19.57,12.13 50.77,7.33 47.34,37.25 -18.39,-7.92 -22.07,-16.15 -44.91,-15.17 9.31,42.73 21.9,17.89 -7.64,62.45 -22.7,34.24 -28.69,35.41 -25.88,64.91l14.74 -15.58 28.16 1.84c-1.83,7.38 -20.56,35.46 6.89,50.4l1.89 -40.81c37.15,-4.86 20.15,29.36 15.13,49.51l45.29 24.58c-8.37,7.56 -10.79,6.28 -16.87,13.84l18.81 28.92c11.57,0.06 17.59,1.33 25.46,-3.36 -23.34,-14.39 -24.69,1.06 -26.55,-33.84l103.28 12.79c11.19,-11.64 42.24,-45.06 47.62,-56.49l10.55 19.39c2.79,7.9 5.35,15.25 7.52,21.02 10.32,27.39 21.37,58.01 49.72,71.91 25.71,12.61 19.8,9.15 47.63,8.36 5.18,18.65 -3.82,7.32 9.59,12.69 9.02,-4.8 6.42,-2.94 16.26,-20.67 31.06,-55.94 6.68,-107.18 3.99,-129.69 -3.5,-29.29 23.47,-3.13 -1.93,-32.23 -2.98,-3.42 -11.03,-14.56 -13.36,-18.86 33.24,-1.71 48.38,41.44 52.34,72.13 12.78,99.03 -16.47,66.65 -0.3,108.9l32.83 -0.58c27.4,-35.5 33.86,-59.64 22.55,-108.78 -9.26,-40.25 -71.46,-71.26 -108.09,-90.3 -16.03,-8.33 -21.36,-6.72 -29.49,-20.04 14.29,2.5 44,14.9 56.51,8.57 -4.42,-15.79 -17.83,-17.92 -25.23,-37.06 32.97,14.97 21.57,26.17 38.83,27.55 -8.12,-35.34 -4.15,-34.13 -17.05,-40.74 -1.66,-0.84 -9.14,-3.34 -11.61,-4.16 -7.27,-2.45 -14.43,-5.28 -22.64,-7.3 -0.47,0.65 -1.01,0.95 -1.21,2.09 -0.15,0.88 -1.95,3.31 -2.51,4.19 -0.47,0.74 -2.26,3.54 -2.77,4.28l-57.14 -19.11c-14.61,29.53 -14.85,14.64 -12.44,29.77 0.61,3.81 2.92,11.05 3.87,15.98 -28.07,-1.41 -16.87,0.25 -31.59,-15.55 -7.6,-8.14 -15.42,-13.46 -19.35,-23.86l14.12 -6.39 -11.41 -16.03c-23.96,1.8 -28.99,2.22 -53.75,-1.96l-7.94 -15.91c-29.65,1.94 -29.97,-5.02 -51.11,-14.53l-5.16 13.2 -20.43 -4.83c-9.37,12.48 5.17,14.41 -13.94,10.01 -7.33,-1.69 -16.19,-9.8 -18.99,-13.61 -28.88,-39.25 8.81,-129.01 -11.77,-159.18 -19.66,24.47 -11.48,13.1 -16.67,42.78 -3.18,18.11 -17.02,7.06 -17.94,41.77 -0.4,14.98 5.72,45.03 1.7,56.26 -5.71,15.93 -18.24,5.96 -14.96,49.25zm217.2 747.25c-3.39,-5.01 -1.22,-3.18 -2,-10.94 -11.42,16.32 -23.39,29.52 -41.32,37.38l-4.6 -16.4c-10.09,10.44 -12.77,15.47 -28.76,15.78l-5.31 -15.17 -22.65 4.52c6.23,9.58 11.12,23.43 22.52,26.04 22.4,5.12 14.72,-17.42 34.35,4.29l8.52 -13.68c4.32,5.73 1.05,0.5 2.93,8.74 2.02,8.88 -3.11,-1.44 1.18,7.7 13.59,-11.03 7.25,-8.78 14.61,-9.94 7.16,-1.12 -2.76,3.54 5.28,-0.66 5.32,-2.77 -2.77,1.51 3.86,-3.33 0.34,-0.24 1.09,-0.93 1.45,-1.17 0.35,-0.23 1.17,-0.78 1.55,-0.98l8.43 -3.75c6.37,-4.73 0,1.34 5.5,-6.53 -4.42,35.21 -26.13,96.16 -47.06,112.26 -3.88,-11.76 4.36,-10.51 0,-22.5 -9.73,4.09 -34.63,35.5 -36.81,40.67 -2.97,-17.76 3.89,-5.4 -8.8,-8.93 -47.07,64.68 -37.91,27.02 -66.48,48.67 7.32,18.83 24.94,17.87 46.12,10.82 14.66,-4.87 11.64,-8.77 18.73,-13.65 14.08,-9.67 7.3,2.03 24.88,-6.53 1.82,-1.89 -4.72,-1.51 4.67,-10.64l22.96 -31.97c19.98,3.67 1.47,5.43 19.62,6.31 23.02,-34.59 57.04,-165.75 50.06,-215.1 -4.48,14.92 -24.5,58.79 -33.4,68.7zm-142.46 -21.45c-6.72,-13.05 -13.7,-19.92 -24.05,-28.71 1.71,-8.93 0.72,-3.18 4.35,-9.2 4.32,-7.2 0.09,4.73 5.05,-7.19 -36.39,-46.9 -6.49,-53.8 -37.48,-86.7 -16.57,-17.58 -25.78,-35.23 -37.63,-58.24 -6.29,-12.2 -3.8,-12.59 -14.3,-18.76 -11.41,22.64 -6.54,20.04 8.46,59.75 15.08,39.9 5.42,39.1 17.03,62.92l10.66 27.64c3.44,9.18 9.26,14.17 15.38,25.79 15.51,29.43 13.88,27.13 52.53,32.7zm-627.52 61.47l7.03 -23.76c8.37,-29.24 36.74,-17.72 37.09,-56.88l-20.33 10.43 24.44 -50.9c-45.26,12.17 -71.29,80.26 -48.22,121.1zm497.92 -1071.62l5.03 1.85c25.32,6.74 6.68,-10.15 24.21,30.54l6.6 -6.69c6.67,-3.57 3.55,-2.06 12.58,-1.53 6.64,14.31 2.68,21.31 14.81,30.9l-1.87 -45.54c-6.73,-2.88 -10.98,-3.44 -16.91,-5.75 -24.38,-9.47 4.72,-14.57 -45.56,-25.02l1.12 21.23zm-316.57 1046.2l-4.59 -13.34c-12.35,11.4 -23.92,12.41 -19.77,33.76 10.81,2.57 51.27,-1.48 57.95,-8.04 3.3,-3.24 5.77,-16.32 6.84,-21.91 -11.05,6.03 -10.92,5.19 -16.23,15.12 -4.62,-4.84 -1.47,-0.1 -4.77,-6.76l-4.94 -13.29c-3.02,-5.54 -0.79,-2.4 -4.64,-6.22 -4.54,7.01 -7.39,9.32 -9.85,20.67zm813.95 -709.87l36.26 -7.48c-0.24,-12.09 -1.78,-20.97 -5.1,-29.2l-28 -1.67c0.11,14.29 -0.02,27.65 -3.16,38.35zm-448.09 898.98c18.25,1.11 24.89,-6.71 24.7,-24.44 -11.88,-8.08 -21.73,-8.79 -37.39,-5.59 2.94,10.74 6.08,22.35 12.69,30.02z"/>
    <path class="fil1" d="M8109.11 3076.49c-12.33,10.76 -26.43,19.28 -41.88,25.76 -26.15,10.94 -54.51,15.12 -82.73,15.12 -42.24,0 -82.85,-10.44 -114.37,-39.75 -29.91,-27.83 -43.02,-63.51 -43.02,-104.12 0,-41.07 13.94,-76.48 46.4,-102.25 35.41,-28.12 82.7,-36.38 126.92,-36.83l107.85 0c-0.36,-16.96 -5.51,-32.05 -19.03,-43.2 -16.15,-13.31 -39.91,-16.43 -60.15,-16.43 -43.21,0 -85.22,15.52 -122.61,36.2l-9.5 5.24 -46.68 -103.11 8.63 -4.3c31.11,-15.56 63.81,-29.16 97.48,-38.17 32.72,-8.76 66.75,-12.29 100.57,-12.29 49.65,0 101.26,9.86 139.97,43.04 36.36,31.16 51.55,73.36 51.7,120.72l0.83 289.65 -140.38 0 0 -35.28zm-370.95 -268.74c-21.37,-12.15 -43.87,-22.47 -67.36,-29.83 -18.6,-5.83 -38.76,-10.27 -58.33,-10.27 -10.17,0 -21.86,1.31 -30.77,6.57 -6.03,3.55 -8.61,8.27 -8.61,15.27 0,8.92 5.33,14.22 12.93,18.2 16.9,8.8 39.64,15.39 57.93,20.77 25.71,7.55 51.68,16.22 76.17,27.13 21.44,9.57 39.62,23.78 54.6,41.8 17.57,21.14 23.84,47.51 23.84,74.52 0,44.47 -16.94,81.09 -53.14,107.31 -38.35,27.73 -84.74,37.35 -131.36,37.35 -35.46,0 -70.44,-5.2 -104.21,-16 -31.76,-10.15 -61.56,-25.08 -87.67,-45.94l-6.23 -4.99 48.67 -101.24 9.83 7.66c21.13,16.5 44.64,29.07 70.01,37.87 23.35,8.11 47.97,13.38 72.8,13.38 11.26,0 24.48,-1.39 34.47,-7.06 6.61,-3.75 9.66,-8.77 9.66,-16.38 0,-9.54 -5.47,-15.45 -13.55,-19.92 -16.76,-9.26 -39.71,-16.11 -58.08,-21.44 -24.99,-7.24 -50.29,-15.5 -74.13,-25.94 -21.26,-9.32 -39.1,-23.45 -53.59,-41.57 -16.87,-21.07 -22.92,-47 -22.92,-73.58 0,-43.96 16.18,-80.66 51.9,-106.86 37.1,-27.22 81.63,-37 127.02,-37 30.62,0 60.88,4.44 90.33,12.71 29.15,8.23 56.91,20.27 82.4,36.69l7.58 4.88 -51.03 101.12 -9.16 -5.21zm-575.79 -148.58c43.35,0 85.81,8.14 124.5,28.2 35.95,18.65 64.57,45.29 84.91,80.34 21.32,36.71 30.03,77.56 30.03,119.75 0,42.11 -8.91,82.66 -30.01,119.31 -20.31,35.25 -48.89,62.18 -84.88,81.13 -38.65,20.37 -81.11,28.64 -124.55,28.64 -43.67,0 -86.5,-8.16 -125.37,-28.64 -35.99,-18.95 -64.57,-45.88 -84.88,-81.13 -21.1,-36.65 -30,-77.21 -30,-119.31 0,-42.2 8.7,-83.04 30.02,-119.75 20.33,-35.05 48.96,-61.69 84.91,-80.34 38.89,-20.2 81.73,-28.2 125.32,-28.2zm-601.8 407.55l0 45.05 -142.74 0 0 -611.15 142.74 0 0 207.91c12.51,-12.64 26.93,-23.12 43.3,-31.2 25.73,-12.7 53.52,-18.16 82.1,-18.16 39.27,0 76.91,8.61 110.72,28.9 32.9,19.74 57.57,47.49 74.73,81.78 18.68,37.41 26.13,78.38 26.13,119.99 0,40.9 -7.26,81.31 -25.78,118.03 -16.94,33.61 -41.23,60.73 -73.49,80.16 -33.52,20.18 -71.02,28.51 -109.92,28.51 -29.04,0 -57.56,-5.24 -83.71,-18.18 -16.61,-8.21 -31.28,-18.85 -44.08,-31.66zm-335.4 -348.77c12.03,-14.58 26.3,-27 43.12,-36.73 27.13,-15.68 57.38,-22.32 88.5,-22.86l10.19 -0.17 0 137.05 -11.27 -1.4c-5.75,-0.72 -12.08,-0.72 -17.88,-0.72 -30.29,0 -60.07,6.91 -82.78,27.99 -21.43,19.87 -29.87,45.43 -29.87,74.33l0 216.33 -142.72 0 0 -448.64 142.72 0 0 54.82zm-368.98 358.54c-12.33,10.76 -26.41,19.28 -41.88,25.76 -26.15,10.94 -54.49,15.12 -82.73,15.12 -42.22,0 -82.85,-10.44 -114.36,-39.75 -29.92,-27.83 -43.03,-63.51 -43.03,-104.12 0,-41.07 13.95,-76.48 46.4,-102.25 35.43,-28.13 82.7,-36.38 126.94,-36.83l107.85 0c-0.38,-16.96 -5.53,-32.05 -19.05,-43.2 -16.15,-13.31 -39.91,-16.43 -60.13,-16.43 -43.23,0 -85.24,15.52 -122.61,36.2l-9.5 5.24 -46.7 -103.11 8.63 -4.3c31.13,-15.56 63.83,-29.16 97.5,-38.17 32.7,-8.76 66.73,-12.29 100.55,-12.29 49.67,0 101.26,9.86 139.97,43.04 36.36,31.16 51.55,73.36 51.7,120.72l0.83 289.65 -140.38 0 0 -35.28zm-411.86 -271.65c23.47,8.89 44.15,22.94 60.78,43.21 23.43,28.53 33.36,62.46 33.36,99.15 0,50.41 -19.91,91.38 -60.67,121.23 -45.72,33.48 -104.21,43.35 -159.68,43.35l-275.3 0 0 -577.68 266.54 0c52.11,0 107.98,8.69 151.55,39.26 38.04,26.68 57.65,63.64 57.65,110.18 0,31.03 -8.87,59.37 -28.03,83.85 -12.77,16.29 -28.4,28.62 -46.2,37.46zm2663.97 149.29l0 -27.16 -86.37 0c-14.51,0 -34.94,1.44 -47.36,9.82 -9.88,6.67 -12.71,17.3 -12.71,28.75 0,12.88 4.24,23.44 14.26,31.68 11.84,9.72 27.72,12.45 42.63,12.45 21.64,0 42.4,-4.7 60.62,-16.68 14.4,-9.45 25.26,-21.86 28.94,-38.87zm-945.93 -172.96c-27.72,0 -51.47,8.83 -70.28,29.41 -19.99,21.85 -27.25,49.3 -27.25,78.46 0,29.16 7.27,56.64 27.25,78.47 18.81,20.58 42.56,29.41 70.28,29.41 27.48,0 50.83,-9.01 69.47,-29.41 19.98,-21.84 27.25,-49.31 27.25,-78.47 0,-29.16 -7.28,-56.62 -27.25,-78.46 -18.64,-20.38 -41.99,-29.41 -69.47,-29.41zm-505.08 213.37c27.47,0 50.62,-9.1 69,-29.7 19.73,-22.14 26.93,-49.73 26.93,-78.96 0,-29.07 -7.35,-56.21 -26.93,-78.18 -18.38,-20.6 -41.53,-29.7 -69,-29.7 -27.59,0 -50.87,9.21 -69.45,29.75 -19.79,21.89 -27.27,48.97 -27.27,78.13 0,29.33 7.11,57.26 27.25,79.27 18.63,20.38 41.97,29.39 69.47,29.39zm-801.89 -40.41l0 -27.16 -86.38 0c-14.51,0 -34.94,1.44 -47.36,9.82 -9.88,6.67 -12.7,17.3 -12.7,28.75 0,12.88 4.23,23.44 14.27,31.68 11.82,9.72 27.7,12.45 42.61,12.45 21.66,0 42.4,-4.7 60.62,-16.68 14.42,-9.45 25.26,-21.86 28.95,-38.87zm-666.65 -297.25l0 101.85 114.23 0c17.27,0 36.06,-3.01 49.88,-14.11 12.04,-9.68 16.58,-22.77 16.58,-38.02 0,-14.89 -4.63,-27.4 -16.47,-36.71 -13.86,-10.85 -32.69,-13.37 -49.99,-13.01l-114.23 0zm0 219.89l0 112.21 114.23 0c21.72,0 46.14,-3.32 64.36,-16.11 14.52,-10.2 21.22,-23.89 21.22,-41.61 0,-17.12 -7.08,-29.86 -21.15,-39.53 -18.22,-12.53 -42.71,-15.36 -64.43,-14.96l-114.23 0zm-570.88 -404.72c21.34,0 40.35,6.81 55.36,22.14 15.14,15.45 21.59,34.93 21.59,56.41 0,21.46 -6.45,40.94 -21.59,56.4 -15.01,15.32 -34.02,22.13 -55.36,22.13 -21.2,0 -39.85,-7.19 -54.63,-22.6 -14.83,-15.46 -21.5,-34.58 -21.5,-55.93 0,-21.48 6.43,-40.96 21.57,-56.41 14.83,-15.13 33.45,-22.14 54.56,-22.14zm-311.14 586.28c-32.49,39.66 -78.23,57.54 -133.37,57.54 -46.06,0 -87.96,-13.47 -120,-47.35 -32.89,-34.76 -44.57,-79.85 -44.57,-126.79l0 -279.28 142.72 0 0 244.24c0,20.61 4.42,41.42 18.83,56.9 13.7,14.71 31.86,19.91 51.43,19.91 24.67,-0.45 45.78,-8.44 61.84,-27.5 17.1,-20.31 23.13,-45.47 23.13,-71.61l0 -221.93 141.93 0 0 448.63 -141.93 0 0 -52.75zm448.66 -34.98c0,29.2 0,58.39 0,87.58l0 10.01 -10.01 0c-41.78,0 -83.56,0 -125.34,0 -53.88,0 -72.73,-61.08 -72.73,-105.53 0,-114.33 0,-228.63 0,-342.95l0 -10.01 142.74 0 0 310.3c0,13.05 0.93,40.58 19.1,40.58 12.07,0 24.16,0 36.23,0l10.01 0 0 10.02zm-1049.97 -71.59l-112.35 0 0 159.32 -145.93 0 0 -577.69 252.22 0c61.83,0 126.86,11.9 175.34,52.97 45.66,38.65 63.29,91.79 63.29,150.63 0,40.31 -7.59,80.25 -28.05,115.37 -17.4,29.9 -41.8,52.51 -71.86,68.62l122.63 190.09 -166.89 0 -88.41 -159.32zm-112.35 -125.21l106.3 0c25.76,0 54.11,-4.54 74.31,-21.87 18.89,-16.24 24.79,-39.55 24.79,-63.71 0,-23.62 -5.83,-46.35 -24.66,-61.99 -20.31,-16.87 -48.87,-21.19 -74.44,-21.19l-106.3 0 0 168.76zm-145.93 -1280.23l149.88 0 0 594.28 -149.88 0 0 -594.28zm400.76 187.72c35.08,-41.43 84.68,-59.3 142.25,-59.84 48.08,-0.43 91.58,13.98 125.11,49.07 34.08,35.66 46.7,81.51 46.7,130.01l0 287.31 -146.63 0 0 -250.41c0,-21.77 -5.03,-42.92 -20.51,-58.94 -15.08,-15.61 -34.89,-21.09 -56.06,-21.09 -26.19,0.47 -48.98,8.69 -66.22,28.84 -18.03,21.01 -24.65,46.86 -24.65,74.17l0 227.42 -146.6 0 0 -461.46 146.6 0 0 54.91zm685.86 93.69c-22.02,-12.51 -45.2,-23.14 -69.36,-30.71 -19.17,-6.02 -39.93,-10.6 -60.08,-10.6 -10.51,0 -22.56,1.35 -31.75,6.77 -6.25,3.67 -8.91,8.63 -8.91,15.82 0,9.27 5.5,14.76 13.36,18.89 17.42,9.07 40.85,15.87 59.66,21.4 26.44,7.75 53.18,16.69 78.36,27.92 22.05,9.84 40.74,24.43 56.15,42.96 18.05,21.77 24.47,48.84 24.47,76.62 0,45.72 -17.37,83.38 -54.6,110.32 -39.45,28.53 -87.19,38.43 -135.11,38.43 -36.49,0 -72.45,-5.36 -107.23,-16.49 -32.64,-10.43 -63.31,-25.78 -90.18,-47.23l-6.3 -5.06 49.99 -103.96 9.91 7.8c21.79,16.99 45.99,29.9 72.08,38.97 24.08,8.34 49.45,13.79 75.02,13.79 11.64,0 25.24,-1.46 35.55,-7.28 6.85,-3.9 10.01,-9.06 10.01,-16.99 0,-9.88 -5.67,-15.98 -14,-20.6 -17.29,-9.57 -40.89,-16.63 -59.83,-22.1 -25.71,-7.46 -51.72,-15.95 -76.29,-26.71 -21.84,-9.58 -40.17,-24.08 -55.11,-42.73 -17.32,-21.66 -23.55,-48.31 -23.55,-75.63 0,-45.2 16.63,-82.95 53.36,-109.86 38.18,-27.99 83.96,-38.06 130.65,-38.06 31.5,0 62.64,4.57 92.95,13.08 29.97,8.47 58.56,20.85 84.75,37.72l7.69 4.99 -52.38 103.81 -9.29 -5.27zm145.69 -21.66l-61.49 0 0 -107.24 61.49 0 0 -121.37 145.82 0 0 121.37 119.7 0 0 108.05 -119.7 0 0 171.84c0,22 4.97,40.69 29.99,40.69 19.68,0 39.54,-6.86 57.02,-15.39l10.96 -5.31 31.66 111.85 -6.67 3.99c-17.82,10.69 -37.1,18.44 -57.21,23.66 -20.56,5.37 -41.6,8.14 -62.82,8.14 -39.82,0 -77.09,-10.63 -106.92,-37.93 -30.94,-28.31 -41.84,-67.32 -41.84,-108.37l0 -193.97zm329.62 -126.94l146.61 0 0 461.46 -146.61 0 0 -461.46zm72.49 -195.97c21.9,0 41.45,7.03 56.87,22.74 15.56,15.88 22.17,35.9 22.17,57.97 0,22.02 -6.61,42.08 -22.17,57.95 -15.42,15.75 -34.94,22.72 -56.87,22.72 -21.84,0 -40.97,-7.4 -56.15,-23.2 -15.23,-15.92 -22.07,-35.56 -22.07,-57.47 0,-22.07 6.61,-42.06 22.16,-57.97 15.23,-15.55 34.39,-22.74 56.06,-22.74zm194.82 322.9l-61.53 0 0 -107.24 61.53 0 0 -121.37 145.78 0 0 121.37 119.7 0 0 108.05 -119.7 0 0 171.84c0,22 4.99,40.69 30.01,40.69 19.66,0 39.53,-6.86 57,-15.39l10.94 -5.31 31.7 111.85 -6.69 3.99c-17.84,10.69 -37.1,18.44 -57.21,23.66 -20.56,5.37 -41.6,8.14 -62.82,8.14 -39.81,0 -77.05,-10.63 -106.88,-37.93 -30.98,-28.31 -41.84,-67.32 -41.84,-108.37l0 -193.97zm623.11 279.98c-33.42,40.98 -80.53,59.48 -137.4,59.48 -47.36,0 -90.46,-13.84 -123.42,-48.71 -33.79,-35.73 -45.81,-82.1 -45.81,-130.38l0 -287.29 146.61 0 0 251.22c0,21.25 4.54,42.69 19.42,58.66 14.11,15.19 32.85,20.56 53.04,20.56 25.42,-0.47 47.18,-8.73 63.72,-28.37 17.62,-20.92 23.85,-46.86 23.85,-73.79l0 -228.27 145.79 0 0 461.46 -145.79 0 0 -54.55zm267.28 -279.98l-61.47 0 0 -107.24 61.47 0 0 -121.37 145.82 0 0 121.37 119.69 0 0 108.05 -119.69 0 0 171.84c0,22 5.01,40.69 29.99,40.69 19.66,0 39.55,-6.86 57.03,-15.39l10.94 -5.33 31.65 111.87 -6.67 3.99c-17.8,10.69 -37.1,18.44 -57.19,23.66 -20.54,5.37 -41.59,8.14 -62.82,8.14 -39.83,0 -77.07,-10.63 -106.9,-37.93 -30.98,-28.31 -41.86,-67.32 -41.86,-108.37l0 -193.97zm535.75 -131.02c44.61,0 88.29,8.36 128.07,29 37,19.23 66.45,46.61 87.37,82.65 21.89,37.75 30.87,79.76 30.87,123.15 0,43.33 -9.16,85.06 -30.87,122.75 -20.89,36.26 -50.26,63.96 -87.31,83.44 -39.74,20.97 -83.4,29.48 -128.13,29.48 -44.93,0 -89,-8.44 -128.98,-29.48 -37,-19.48 -66.39,-47.18 -87.28,-83.44 -21.71,-37.69 -30.87,-79.42 -30.87,-122.75 0,-43.38 8.98,-85.4 30.89,-123.15 20.92,-36.04 50.35,-63.42 87.35,-82.65 39.98,-20.76 84.06,-29 128.89,-29zm0 125.28c-28.58,0 -53.03,9.11 -72.44,30.3 -20.58,22.52 -28.08,50.8 -28.08,80.87 0,30.07 7.51,58.35 28.08,80.87 19.41,21.22 43.87,30.29 72.44,30.29 28.33,0 52.41,-9.27 71.62,-30.29 20.57,-22.53 28.06,-50.8 28.06,-80.87 0,-30.07 -7.5,-58.36 -28.06,-80.87 -19.21,-21 -43.29,-30.3 -71.62,-30.3z"/>
   </g>
   <g>
    <path class="fil0" d="M13270.27 3478.67l-16.13 104.56 0 14.13 221.49 0 18.61 -104.57 0 -14.12 -223.97 0zm1202.33 -314.84l0 -12.2 -281.74 0 0 12.2c7.33,8.54 41.47,40.25 41.47,106.1l0 617.13c0,65.86 -34.14,97.57 -41.47,106.11l0 12.19 281.74 0 0 -12.19c-8.54,-8.54 -42.69,-40.25 -42.69,-106.11l0 -617.13c0,-65.85 34.15,-97.56 42.69,-106.1zm-525.04 269.53c0,118.3 -73.19,184.16 -148.8,184.16 -2.44,0 -7.32,0 -13.41,0l0 -345.15c93.92,1.22 162.22,37.81 162.22,160.99zm-148.8 225.63c4.89,0 7.33,0 8.55,0 214.66,0 356.12,-63.42 356.12,-257.34 0,-170.75 -128.06,-250.03 -336.62,-250.03l-280.51 0 0 12.2c7.32,8.54 41.47,40.25 41.47,106.1l0 617.13c0,65.86 -34.15,97.57 -41.47,106.11l0 12.19 280.51 0 0 -12.19c-8.54,-8.54 -41.47,-40.25 -41.47,-106.11l0 -246.37 13.41 18.3zm-581.08 157.33c-6.1,8.54 -36.59,62.2 -108.55,62.2l-254.9 0 0 -279.3 195.14 0c15.86,0 28.05,8.54 34.15,17.08l4.89 0 0 -156.11 -4.89 0c-6.1,8.54 -18.29,17.07 -34.15,17.07l-195.14 0 0 -198.8 180.51 0c69.52,0 85.37,50 87.81,60.97l8.54 0 0 -198.8 -8.54 0c-13.41,12.19 -87.81,10.97 -87.81,10.97l-418.33 0 0 12.2c7.32,8.54 41.47,40.25 41.47,106.1l0 617.13c0,65.86 -34.15,97.57 -41.47,106.11l0 12.19 492.73 0c0,0 48.78,-1.22 63.42,8.54l9.75 0 48.78 -193.92 -13.41 -3.66zm-623.81 -29.27c-79.27,70.74 -156.11,100.01 -231.73,104.89 -175.63,12.19 -284.17,-89.03 -307.34,-275.63 -19.52,-156.11 26.82,-334.18 196.36,-359.79 114.64,-17.07 192.7,28.05 248.81,67.08l12.19 0 0 -154.89c-58.55,-18.3 -120.74,-35.37 -209.78,-35.37 -23.17,-1.22 -48.78,0 -73.18,2.44 -258.56,28.05 -428.08,257.34 -393.93,507.36 30.49,229.29 167.08,374.42 458.58,374.42 124.4,0 196.36,-21.95 248.81,-42.69l62.19 -181.72 -10.97 -6.11zm-727.39 -657.37c-10.98,9.75 -29.27,21.95 -101.23,21.95l-469.55 0c-20.74,0 -50.01,0 -63.42,-10.97l-8.54 0 -47.56 187.82 12.19 3.66c6.1,-9.75 35.37,-53.66 107.33,-53.66l131.71 0 0 608.59c0,65.86 -34.15,97.57 -41.47,106.11l0 12.19 280.51 0 0 -12.19c-8.54,-8.54 -41.46,-40.25 -41.46,-106.11l0 -608.59 128.06 0c37.81,0 60.98,13.41 69.52,29.26l9.75 0 43.9 -174.4 -9.75 -3.66z"/>
    <path class="fil1" d="M12658.25 2263.28c984.92,-66.21 1930.91,152.3 2781.75,512.7 57.22,25.36 36.82,65.04 -19.89,45.11 -728.82,-242.38 -1515.85,-350.23 -2329.56,-295.51 -881.44,59.27 -1706.24,303.5 -2439.61,691.76 -63.3,33.5 -80.11,13.24 -61.39,-54.39l70.93 -291.65c38.64,-129.04 108.31,-172.94 169.19,-197.56 570.25,-224.92 1184.29,-367.16 1828.59,-410.47z"/>
    <path class="fil1" d="M12240.83 1904.41c957.25,-63.67 1877.64,140.24 2709.7,482.62 141.76,62.38 93.13,95.11 -44.63,43.9 -701.52,-220.29 -1454.94,-316.52 -2232.76,-264.22 -881.43,59.27 -1706.23,303.5 -2439.61,691.76 -63.3,33.5 -80.11,13.24 -61.39,-54.39 20.65,-84.89 41.3,-169.78 61.94,-254.67 18.92,-77.82 38.47,-133.66 89.77,-179.85 32.46,-29.22 76.93,-51.7 122.84,-70.62 283.44,-116.83 610.44,-209.61 909.29,-273.21 287.16,-61.12 581.61,-101.16 884.87,-121.33z"/>
    <path class="fil1" d="M12860.28 35.54l231.31 543.32 568.05 42.42c55.21,8.36 32.04,44.63 20.48,53.22l-427.12 382.59 135.15 581.54c1.99,7.1 -2.44,38.89 -37.5,25.82 -149.72,-89.23 -299.44,-178.46 -449.15,-267.69 -20.33,-12.11 -40.66,-24.23 -60.98,-36.34 -18.74,10.89 -37.48,21.81 -56.23,32.7l-438.44 255.08c-12.58,7.32 -30.8,18.05 -45.29,10.91 -17.48,-8.62 -12.53,-32.01 -8.87,-47l132.49 -543.99 -431.24 -386.28c-29.21,-26.16 -27.16,-57.65 16.44,-60.89l560.83 -41.87 232.7 -546.57c14.7,-30.5 45.36,-25.21 57.39,3.02z"/>
   </g>
  </g>
 </g>
</svg>
